<svg xmlns="http://www.w3.org/2000/svg" viewBox="0 0 32 32">
  <path fill="#00ed64" d="M15.9.087l.854 1.604c.192.296.4.558.645.802.715.715 1.394 1.464 2.004 2.266 1.447 1.9 2.423 4.01 3.12 6.292.418 1.394.645 2.824.662 4.27.07 4.323-1.412 8.035-4.4 11.12-.488.488-1.01.94-1.57 1.342-.296 0-.436-.227-.558-.436-.227-.383-.366-.802-.436-1.22-.174-.923-.314-1.864-.314-2.8v-.436l-.28-.244c-.296-.61-.488-1.253-.7-1.9-.244-.68-.435-1.394-.558-2.1-.087-.557-.087-1.132-.174-1.69v-.174c-.174.314-.314.662-.403 1.01-.174.484-.314.98-.435 1.484-.174.662-.314 1.342-.488 2.004-.087.435-.122.883-.174 1.318-.087.883-.122 1.783-.174 2.684 0 .174-.035.314-.035.435v.436c-.14.383-.314.767-.488 1.133-.314.61-.662 1.168-1.132 1.604-.087.087-.122.174-.174.26-.052 0-.087.035-.087.07-.209.052-.314.174-.488.26-.087.052-.174.174-.26.26-.314.383-.662.767-1.01 1.15-.087.087-.122.227-.21.314-.157 0-.244.035-.33.087l-.104.174c-.227.244-.453.488-.68.767-.244.244-.488.453-.767.662-.261.21-.557.397-.854.575-.488.314-1.01.662-1.537.94l-1.463.767c-.38.21-.767.362-1.168.488-.21.087-.435.174-.648.26h-.022c-.227.088-.453.176-.68.262h-.061c-.174.052-.453.052-.514.244 0 .035-.053.035-.088.035-.105.035-.227.07-.331.105-.262.052-.488.087-.75.087h-.15c-.174.052-.383.052-.557.087-.174 0-.314 0-.47.035h-.383c-.14 0-.244.035-.4.035h-.436c-.121 0-.26.035-.382.035-.157 0-.314-.035-.47-.035h-.305c-.21 0-.435-.035-.645-.087h-.157c-.488-.087-.94-.244-1.394-.488-.026 0-.061 0-.087-.035-.087-.035-.174-.07-.26-.122-.262-.14-.505-.296-.767-.488l-.157-.122c-.384-.296-.732-.61-1.063-.958-.366-.383-.697-.801-1.01-1.22-.157-.209-.279-.435-.436-.644l-.157-.174c-.175-.244-.349-.505-.506-.767v-.035c-.17-.296-.31-.592-.452-.888-.104-.244-.208-.453-.313-.662v-.087c-.096-.244-.166-.505-.262-.749-.087-.26-.157-.505-.21-.767v-.035c-.052-.21-.087-.383-.122-.592 0-.174-.053-.383-.088-.557-.07-.47-.105-.94-.157-1.394v-.662c0-.226-.035-.4-.035-.627v-1.02c0-.244 0-.505.035-.749 0-.226.035-.435.035-.662.035-.296.07-.557.105-.853.07-.383.14-.767.21-1.133.087-.383.21-.767.296-1.133.105-.383.21-.767.366-1.133.157-.366.314-.767.488-1.115.21-.366.418-.732.662-1.08.244-.366.505-.697.767-1.063.314-.383.662-.732 1.01-1.063.366-.366.767-.662 1.168-.958.383-.296.801-.557 1.22-.784.418-.244.853-.453 1.289-.662.47-.21.94-.366 1.446-.488.488-.122 1.01-.21 1.537-.244h.453c.084 0 .166-.035.21-.122.053 0 .087-.035.14-.035.114-.035.192-.07.297-.087.349-.053.662-.105 1.01-.105h.575c.166 0 .332 0 .47.035h.157c.384.07.732.14 1.116.21.366.087.732.21 1.063.383h.035c.331.157.627.349.906.557.157.14.366.244.557.349.205.122.401.227.575.349.21.157.418.314.592.47.21.174.418.383.592.592.21.21.366.418.54.662l.262.349c.174.244.314.505.47.767.174.28.314.557.435.853v.035c.14.296.245.592.366.888.122.296.21.592.296.906v.035c.087.314.157.627.21.94.052.314.087.627.122.94v.07c.035.296.07.592.07.906v.94c-.035.418-.07.801-.105 1.22-.087.418-.157.801-.261 1.203-.122.418-.262.801-.418 1.203-.157.383-.349.732-.557 1.08-.244.349-.505.662-.784.958-.296.296-.592.557-.923.784-.349.244-.697.453-1.063.662-.383.21-.767.383-1.168.505-.418.122-.853.21-1.272.244-.47.035-.94.053-1.394-.035-.418-.07-.801-.174-1.186-.314z"/>
</svg> 